HIERARCHY
ROOT Pelvis
{
	OFFSET 0.000000 0.000000 0.000000
	CHANNELS 6 Xposition Yposition Zposition Xrotation Yrotation Zrotation
	JOINT LeftUpLeg_virtual
	{
		OFFSET 0.000000 0.000000 0.000000
		CHANNELS 3 Xrotation Yrotation Zrotation
		JOINT LeftUpLeg
		{
			OFFSET 18.735201 -5.666702 -4.541200
			CHANNELS 3 Xrotation Yrotation Zrotation
			JOINT LeftLeg
			{
				OFFSET -0.021200 -31.938179 0.493100
				CHANNELS 3 Xrotation Yrotation Zrotation
				JOINT LeftFoot
				{
					OFFSET 0.021200 -31.938179 -4.336299
					CHANNELS 3 Xrotation Yrotation Zrotation
					JOINT LeftToeBase
					{
						OFFSET 0.943001 -26.722000 15.023500
						CHANNELS 3 Xrotation Yrotation Zrotation
						End Site
						{
							OFFSET 0 0 0
						}
					}
				}
			}
		}
	}
	JOINT RightUpLeg_virtual
	{
		OFFSET 0.000000 0.000000 0.000000
		CHANNELS 3 Xrotation Yrotation Zrotation
		JOINT RightUpLeg
		{
			OFFSET -18.735201 -5.666702 -4.541200
			CHANNELS 3 Xrotation Yrotation Zrotation
			JOINT RightLeg
			{
				OFFSET 0.018946 -31.938133 0.493100
				CHANNELS 3 Xrotation Yrotation Zrotation
				JOINT RightFoot
				{
					OFFSET -0.018946 -31.938126 -4.336299
					CHANNELS 3 Xrotation Yrotation Zrotation
					JOINT RightToeBase
					{
						OFFSET -0.943001 -26.722004 15.023500
						CHANNELS 3 Xrotation Yrotation Zrotation
						End Site
						{
							OFFSET 0 0 0
						}
					}
				}
			}
		}
	}
	JOINT Hips_virtual
	{
		OFFSET 0.000000 0.000000 0.000000
		CHANNELS 3 Xrotation Yrotation Zrotation
		JOINT Hips
		{
			OFFSET -0.000000 -0.000000 -0.000000
			CHANNELS 3 Xrotation Yrotation Zrotation
			JOINT Spine
			{
				OFFSET 0.000000 10.199997 -0.299500
				CHANNELS 3 Xrotation Yrotation Zrotation
				JOINT Spine1
				{
					OFFSET 0.000000 11.900002 -1.516600
					CHANNELS 3 Xrotation Yrotation Zrotation
					JOINT Spine2
					{
						OFFSET 0.000000 13.600006 -2.842500
						CHANNELS 3 Xrotation Yrotation Zrotation
						JOINT Neck_virtual
						{
							OFFSET 0.000000 0.000000 0.000000
							CHANNELS 3 Xrotation Yrotation Zrotation
							JOINT Neck
							{
								OFFSET 0.000000 9.624100 -2.890100
								CHANNELS 3 Xrotation Yrotation Zrotation
								JOINT Head
								{
									OFFSET 0.000000 14.068802 -1.351900
									CHANNELS 3 Xrotation Yrotation Zrotation
									End Site
									{
										OFFSET 0 0 0
									}
								}
							}
						}
						JOINT LeftShoulder_virtual
						{
							OFFSET 0.000000 0.000000 0.000000
							CHANNELS 3 Xrotation Yrotation Zrotation
							JOINT LeftShoulder
							{
								OFFSET 15.263000 10.923401 -0.547700
								CHANNELS 3 Xrotation Yrotation Zrotation
								JOINT LeftArm
								{
									OFFSET 25.438599 -2.830597 -13.032500
									CHANNELS 3 Xrotation Yrotation Zrotation
									JOINT LeftForeArm
									{
										OFFSET 29.960503 0.000000 0.000000
										CHANNELS 3 Xrotation Yrotation Zrotation
										JOINT LeftHand
										{
											OFFSET 27.849251 0.000000 0.000000
											CHANNELS 3 Xrotation Yrotation Zrotation
											End Site
											{
												OFFSET 0 0 0
											}
										}
									}
								}
							}
						}
						JOINT RightShoulder_virtual
						{
							OFFSET 0.000000 0.000000 0.000000
							CHANNELS 3 Xrotation Yrotation Zrotation
							JOINT RightShoulder
							{
								OFFSET -15.263000 10.923401 -0.547700
								CHANNELS 3 Xrotation Yrotation Zrotation
								JOINT RightArm
								{
									OFFSET -25.438599 -2.830597 -13.032500
									CHANNELS 3 Xrotation Yrotation Zrotation
									JOINT RightForeArm
									{
										OFFSET -29.960503 0.000000 0.000000
										CHANNELS 3 Xrotation Yrotation Zrotation
										JOINT RightHand
										{
											OFFSET -27.849251 0.000000 0.000000
											CHANNELS 3 Xrotation Yrotation Zrotation
											End Site
											{
												OFFSET 0 0 0
											}
										}
									}
								}
							}
						}
					}
				}
			}
		}
	}
}
MOTION
Frames: 6
Frame Time: 0.03333333
-23.426907 78.752731 -7.875683 0.000000 0.000000 0.000000 36.002347 2.001100 -2.282909 -63.054763 -22.266254 25.254266 38.185808 5.690568 -1.866885 2.016685 6.837048 -31.090058 0.000000 0.000000 0.000000 36.102034 2.879177 -2.760648 -68.934060 3.299444 -23.569296 54.435515 -3.332590 0.391483 -17.570160 -5.553290 21.303710 0.000000 0.000000 0.000000 35.771043 2.592540 -2.218833 0.458441 0.302645 -1.185116 11.283841 1.789868 1.651811 9.569642 1.937966 0.806323 0.000000 0.000000 0.000000 8.633790 2.419207 0.835886 0.005413 -1.207623 -0.176427 0.000000 0.000000 0.000000 8.825590 2.677380 0.590774 1.956497 -22.616064 -7.408056 7.968614 -12.558274 -53.486300 2.153109 -65.307380 1.870492 0.000000 0.000000 0.000000 8.847549 2.716587 0.481182 3.118047 24.597045 7.663137 -4.615457 44.575058 22.461950 -0.108197 20.488312 -0.085177 0.000000 0.000000 0.000000 
-22.323673 77.638512 -7.986038 0.000000 0.000000 0.000000 39.047327 2.322201 -1.893388 -67.823143 -21.718948 24.029673 40.599345 5.404305 -2.483698 0.711818 6.019351 -31.943360 0.000000 0.000000 0.000000 39.240051 3.090251 -2.477912 -72.841645 4.830779 -24.985255 56.019323 -2.686089 0.451505 -17.413692 -5.695845 22.725619 0.000000 0.000000 0.000000 38.965345 2.715442 -1.828512 0.480986 0.315034 -1.262691 11.325299 2.052828 1.812516 9.928925 2.186990 0.770527 0.000000 0.000000 0.000000 8.893575 2.608066 0.826985 -0.131914 -1.259555 -0.273119 0.000000 0.000000 0.000000 9.101042 2.868062 0.573937 1.959782 -23.306501 -7.066161 7.638647 -12.348382 -53.259752 2.206909 -67.210018 1.842946 0.000000 0.000000 0.000000 9.193135 2.941529 0.478988 3.225715 25.215277 7.411360 -7.062615 44.224269 19.443971 -0.254806 20.787414 -0.004270 0.000000 0.000000 0.000000 
-21.204910 76.496201 -7.986877 0.000000 0.000000 0.000000 41.939923 3.094955 -1.540751 -73.088994 -20.878292 22.697098 43.525322 4.976872 -3.280960 -0.267975 5.225721 -32.128124 0.000000 0.000000 0.000000 42.210036 3.682893 -2.162274 -76.524463 6.551003 -26.792643 57.973635 -1.846265 0.654338 -17.511302 -5.919047 24.495435 0.000000 0.000000 0.000000 42.064786 3.224047 -1.405279 0.496035 0.228548 -1.315725 11.320338 2.307084 1.930304 10.290662 2.435877 0.732735 0.000000 0.000000 0.000000 9.165329 2.793547 0.816395 -0.268269 -1.323975 -0.358667 0.000000 0.000000 0.000000 9.377125 3.060422 0.551399 1.993802 -23.955782 -6.710864 8.197310 -12.986896 -53.341766 2.337587 -68.849570 1.836902 0.000000 0.000000 0.000000 9.511543 3.160877 0.463488 3.267862 25.720947 7.479209 -10.131752 43.648877 16.765437 -0.426666 21.040345 0.075265 0.000000 0.000000 0.000000 
-20.094322 75.234711 -7.834068 0.000000 0.000000 0.000000 44.508508 4.255507 -1.161116 -78.529226 -19.812166 21.242071 46.993720 4.398650 -4.118997 -1.342357 4.633421 -31.556007 0.000000 0.000000 0.000000 44.893310 4.678765 -1.786683 -79.866864 8.703293 -28.851324 60.536820 -0.872718 0.865276 -18.177806 -6.299529 26.448140 0.000000 0.000000 0.000000 44.858934 4.131785 -0.930699 0.538722 0.107258 -1.321623 11.381909 2.560402 1.982897 10.704319 2.690041 0.707805 0.000000 0.000000 0.000000 9.508136 2.990410 0.820839 -0.420899 -1.400357 -0.438232 0.000000 0.000000 0.000000 9.698363 3.269340 0.548448 2.064436 -24.473929 -6.300757 9.316136 -14.098719 -53.610968 2.465457 -70.142273 1.837633 0.000000 0.000000 0.000000 9.857591 3.376517 0.450684 3.228483 26.129746 7.842002 -13.137480 42.866117 13.966010 -0.610005 21.755549 0.183134 0.000000 0.000000 0.000000 
-19.007687 73.800133 -7.612827 0.000000 0.000000 0.000000 46.743486 5.653944 -0.700440 -83.694365 -18.715816 19.572240 50.718406 3.526471 -4.791014 -3.114785 4.207106 -30.540409 0.000000 0.000000 0.000000 47.203775 6.002524 -1.336674 -82.785253 11.361893 -30.983002 63.892547 0.056749 0.968936 -19.746830 -7.013896 28.249102 0.000000 0.000000 0.000000 47.245238 5.370331 -0.398715 0.536423 -0.038753 -1.256655 11.580082 2.813740 1.993574 11.210557 2.963720 0.701991 0.000000 0.000000 0.000000 9.977394 3.219608 0.849797 -0.620899 -1.491527 -0.517008 0.000000 0.000000 0.000000 10.108038 3.519806 0.582919 2.160055 -24.770690 -5.790522 10.565224 -15.310236 -53.864685 2.468475 -71.119946 1.784972 0.000000 0.000000 0.000000 10.292164 3.615055 0.459072 3.146566 26.488525 8.278686 -15.620163 41.956083 10.852093 -0.780492 23.005838 0.320036 0.000000 0.000000 0.000000 
-17.995237 72.175430 -7.259144 0.000000 0.000000 0.000000 48.608773 7.151787 -0.148934 -88.339768 -17.639336 17.766184 54.561757 2.361659 -5.196352 -5.464938 3.909712 -29.329256 0.000000 0.000000 0.000000 49.167168 7.474946 -0.816046 -85.194432 14.463588 -32.992122 68.007593 0.809289 0.941773 -22.287642 -8.123158 29.717019 0.000000 0.000000 0.000000 49.198884 6.794303 0.167674 0.466520 -0.107992 -1.166289 11.905848 3.074349 2.018239 11.825051 3.285482 0.724989 0.000000 0.000000 0.000000 10.581338 3.495249 0.899669 -0.897272 -1.597391 -0.600732 0.000000 0.000000 0.000000 10.633431 3.829570 0.660230 2.265641 -24.800793 -5.160775 11.565517 -16.446571 -53.948048 2.323870 -71.956917 1.669494 0.000000 0.000000 0.000000 10.860646 3.899977 0.505550 3.092889 26.834980 8.513914 -17.481422 41.140265 7.376727 -0.894076 24.324773 0.430873 0.000000 0.000000 0.000000 
